<?xml version="1.0" encoding="UTF-8"?>
<svg xmlns="http://www.w3.org/2000/svg" xmlns:xlink="http://www.w3.org/1999/xlink" width="380" height="350" viewBox="350 130 380 350" version="1.1">
<g id="surface0">
<path style="fill: none; stroke-width: 0.1; stroke-linecap: butt; stroke-linejoin: miter; stroke: rgb(100%,100%,100%); opacity: 1;stroke-miterlimit: 10;" d="M 0 0 L 1070 0 L 1070 480 L 0 480 L 0 0 Z M 0 0 " transform="matrix(1,0,0,1,0,0)"/>
<path style="stroke: none; fill-rule: nonzero; fill: rgb(100%,100%,100%); opacity: 1;" d="M 0 0 L 1070 0 L 1070 480 L 0 480 L 0 0 Z M 0 0 "/>
    <path style="fill: none; stroke-width: 0.1; stroke-linecap: butt; stroke-linejoin: miter; stroke: rgb(0%,0%,0%); opacity: 1;stroke-miterlimit: 10;" d="M 517.946503 158.007355 C 518.688431 154.14534 521.801941 150.308289 525.905396 149.984512 C 528.351013 150.434952 527.238266 153.356079 527.038361 154.973633 C 524.795776 164.746277 530.80368 174.011292 537.831161 180.228439 C 534.471085 182.341537 531.072113 184.387939 527.710342 186.492737 C 512.215027 178.540665 496.953903 167.903259 478.952057 167.268814 C 465.452225 167.828308 451.887329 173.843094 443.076538 184.227005 C 439.505173 188.464462 437.168243 193.56929 435.304291 198.745438 C 433.337234 198.58461 431.368134 198.495239 429.408264 198.416763 C 431.84346 187.518066 437.686523 177.499893 446.018524 170.061508 C 440.393433 168.319656 434.559692 172.437149 429.099258 169.829483 C 426.829361 168.916992 426.666107 165.817261 428.119995 164.125626 C 430.016129 161.724899 433.164093 160.73114 436.12027 160.530441 C 440.549713 160.141357 444.594894 162.667557 449.011353 162.520004 C 454.733368 162.348465 460.687866 162.310623 466.047424 160.033539 C 477.002701 155.832001 489.216675 157.418228 500.167389 160.810715 C 507.464539 163.059128 514.376038 166.369324 521.032394 170.083267 C 520.25235 165.993484 516.850967 162.358871 517.946503 158.007355 Z M 517.946503 158.007355 " transform="matrix(1,0,0,1,0,0)"/>
    <path style="stroke: none; fill-rule: nonzero; fill: rgb(100%,0%,0%); opacity: 1;" d="M 517.946503 158.007355 C 518.688431 154.14534 521.801941 150.308289 525.905396 149.984512 C 528.351013 150.434952 527.238266 153.356079 527.038361 154.973633 C 524.795776 164.746277 530.80368 174.011292 537.831161 180.228439 C 534.471085 182.341537 531.072113 184.387939 527.710342 186.492737 C 512.215027 178.540665 496.953903 167.903259 478.952057 167.268814 C 465.452225 167.828308 451.887329 173.843094 443.076538 184.227005 C 439.505173 188.464462 437.168243 193.56929 435.304291 198.745438 C 433.337234 198.58461 431.368134 198.495239 429.408264 198.416763 C 431.84346 187.518066 437.686523 177.499893 446.018524 170.061508 C 440.393433 168.319656 434.559692 172.437149 429.099258 169.829483 C 426.829361 168.916992 426.666107 165.817261 428.119995 164.125626 C 430.016129 161.724899 433.164093 160.73114 436.12027 160.530441 C 440.549713 160.141357 444.594894 162.667557 449.011353 162.520004 C 454.733368 162.348465 460.687866 162.310623 466.047424 160.033539 C 477.002701 155.832001 489.216675 157.418228 500.167389 160.810715 C 507.464539 163.059128 514.376038 166.369324 521.032394 170.083267 C 520.25235 165.993484 516.850967 162.358871 517.946503 158.007355 Z M 517.946503 158.007355 "/>
    <path style="fill: none; stroke-width: 0.1; stroke-linecap: butt; stroke-linejoin: miter; stroke: rgb(0%,0%,0%); opacity: 1;stroke-miterlimit: 10;" d="M 563.41748 157.473129 C 564.517242 154.900085 566.057953 151.877884 569.081268 151.284241 C 570.921936 150.691483 572.384079 152.422943 572.831528 154.008423 C 573.569717 158.004745 572.182907 161.959061 571.201782 165.783508 C 582.448135 162.68396 594.395264 161.783737 605.877747 164.101028 C 612.863724 165.616547 619.173645 169.232437 626.1492 170.804214 C 631.77507 172.170929 637.971115 174.002396 643.545486 171.444046 C 645.466904 170.736053 648.262436 169.136169 649.918488 171.096664 C 651.665451 173.93988 649.614716 177.771576 646.745789 178.947952 C 641.6483 181.187408 635.924133 180.840561 630.512939 181.568405 C 638.368912 195.759781 640.53688 214.075226 632.333893 228.605652 C 636.092743 235.683884 630.460495 246.13118 622.084854 245.526337 C 616.716476 245.725525 611.975525 240.307327 613.75618 235.015427 C 615.152847 228.546936 622.33107 225.83287 628.321213 226.315216 C 639.203079 207.334137 628.045547 179.995605 607.163574 173.748001 C 597.259964 170.564941 586.582825 172.094101 576.888535 175.272049 C 558.389313 181.229218 541.111954 190.265823 523.496735 198.34903 C 517.961365 200.829315 512.432983 203.452728 506.511414 204.879364 C 517.724319 211.388779 527.935303 219.479507 537.811249 227.84256 C 536.528793 229.006821 535.249298 230.167084 533.980011 231.338379 C 523.819595 222.9608 513.563095 214.51329 502.011398 208.103485 C 509.43924 214.413956 516.797577 220.813507 523.919266 227.47171 C 522.397842 228.629196 520.889694 229.796677 519.386841 230.968582 C 508.908508 221.218536 498.093918 211.826752 486.837555 202.98465 C 503.441162 203.461563 519.380402 196.921417 533.084808 187.99086 C 545.225418 180.35672 558.362137 171.603195 563.41748 157.473129 Z M 563.41748 157.473129 " transform="matrix(1,0,0,1,0,0)"/>
    <path style="stroke: none; fill-rule: nonzero; fill: rgb(0%,0%,0%); opacity: 1;" d="M 563.41748 157.473129 C 564.517242 154.900085 566.057953 151.877884 569.081268 151.284241 C 570.921936 150.691483 572.384079 152.422943 572.831528 154.008423 C 573.569717 158.004745 572.182907 161.959061 571.201782 165.783508 C 582.448135 162.68396 594.395264 161.783737 605.877747 164.101028 C 612.863724 165.616547 619.173645 169.232437 626.1492 170.804214 C 631.77507 172.170929 637.971115 174.002396 643.545486 171.444046 C 645.466904 170.736053 648.262436 169.136169 649.918488 171.096664 C 651.665451 173.93988 649.614716 177.771576 646.745789 178.947952 C 641.6483 181.187408 635.924133 180.840561 630.512939 181.568405 C 638.368912 195.759781 640.53688 214.075226 632.333893 228.605652 C 636.092743 235.683884 630.460495 246.13118 622.084854 245.526337 C 616.716476 245.725525 611.975525 240.307327 613.75618 235.015427 C 615.152847 228.546936 622.33107 225.83287 628.321213 226.315216 C 639.203079 207.334137 628.045547 179.995605 607.163574 173.748001 C 597.259964 170.564941 586.582825 172.094101 576.888535 175.272049 C 558.389313 181.229218 541.111954 190.265823 523.496735 198.34903 C 517.961365 200.829315 512.432983 203.452728 506.511414 204.879364 C 517.724319 211.388779 527.935303 219.479507 537.811249 227.84256 C 536.528793 229.006821 535.249298 230.167084 533.980011 231.338379 C 523.819595 222.9608 513.563095 214.51329 502.011398 208.103485 C 509.43924 214.413956 516.797577 220.813507 523.919266 227.47171 C 522.397842 228.629196 520.889694 229.796677 519.386841 230.968582 C 508.908508 221.218536 498.093918 211.826752 486.837555 202.98465 C 503.441162 203.461563 519.380402 196.921417 533.084808 187.99086 C 545.225418 180.35672 558.362137 171.603195 563.41748 157.473129 Z M 563.41748 157.473129 "/>
    <path style="fill: none; stroke-width: 0.1; stroke-linecap: butt; stroke-linejoin: miter; stroke: rgb(0%,0%,0%); opacity: 1;stroke-miterlimit: 10;" d="M 543.254028 194.437195 C 545.607208 192.437927 548.172424 190.705124 550.841568 189.15123 C 560.238968 194.517136 570.516678 198.029648 580.743927 201.42569 C 580.250946 201.699112 579.730087 201.880722 579.181335 201.970535 C 563.361633 209.81044 551.201202 223.115387 539.98468 236.420441 C 538.605453 235.192413 537.218277 233.976028 535.827759 232.775894 C 538.392822 229.438049 541.074509 226.192612 543.69194 222.894806 C 541.973557 224.018784 540.357666 225.290176 538.808762 226.629257 C 537.410965 225.270523 536.026382 223.903473 534.641708 222.544708 C 543.834457 215.098633 553.472794 208.17247 563.673218 202.166382 C 556.686707 200.086578 549.895309 197.425903 543.254028 194.437195 Z M 543.254028 194.437195 " transform="matrix(1,0,0,1,0,0)"/>
    <path style="stroke: none; fill-rule: nonzero; fill: rgb(100%,0%,0%); opacity: 1;" d="M 543.254028 194.437195 C 545.607208 192.437927 548.172424 190.705124 550.841568 189.15123 C 560.238968 194.517136 570.516678 198.029648 580.743927 201.42569 C 580.250946 201.699112 579.730087 201.880722 579.181335 201.970535 C 563.361633 209.81044 551.201202 223.115387 539.98468 236.420441 C 538.605453 235.192413 537.218277 233.976028 535.827759 232.775894 C 538.392822 229.438049 541.074509 226.192612 543.69194 222.894806 C 541.973557 224.018784 540.357666 225.290176 538.808762 226.629257 C 537.410965 225.270523 536.026382 223.903473 534.641708 222.544708 C 543.834457 215.098633 553.472794 208.17247 563.673218 202.166382 C 556.686707 200.086578 549.895309 197.425903 543.254028 194.437195 Z M 543.254028 194.437195 "/>
    <path style="fill: none; stroke-width: 0.1; stroke-linecap: butt; stroke-linejoin: miter; stroke: rgb(0%,0%,0%); opacity: 1;stroke-miterlimit: 10;" d="M 391.371048 192.31337 C 393.961807 190.433838 397.591919 190.686417 400.459335 191.783096 C 405.617752 193.96109 410.141129 197.607071 413.413986 202.151001 C 427.544769 200.339264 442.065903 203.60759 454.400177 210.627426 C 467.489304 217.970886 478.058685 229.185196 486.265045 241.631561 C 491.216721 249.408234 496.109924 257.226227 501.370316 264.802872 C 500.064331 266.056717 498.754532 267.303177 497.420685 268.522675 C 485.039154 249.049225 472.48027 228.383057 452.681366 215.575317 C 466.819702 229.315552 478.569763 245.431122 488.063782 262.678024 C 486.83873 264.307831 485.637146 265.95459 484.440643 267.603821 C 473.866013 250.642197 463.187866 233.314407 448.263779 219.764359 C 440.982666 213.311905 432.000961 207.826096 421.979462 207.779007 C 412.638 208.030075 404.238281 213.30278 397.851929 219.790695 C 391.396225 226.60704 386.519119 235.458542 386.233231 245.009628 C 385.887619 253.781631 389.96637 262.930038 397.551971 267.638321 C 403.247116 271.366043 411.441925 272.56723 417.103668 268.146606 C 420.899399 265.249207 421.94722 260.222992 421.87648 255.697311 C 419.265823 258.217529 415.998642 260.79538 412.104004 259.942856 C 405.121948 259.149628 403.197632 249.22757 407.844925 244.723282 C 411.572479 240.569 419.129669 241.091721 422.113419 245.889435 C 427.988403 254.646591 425.633057 269.059799 415.566437 273.688538 C 406.254166 277.428085 395.000305 273.962936 388.48941 266.557297 C 379.335556 255.93634 376.884506 239.590775 383.470016 227.051941 C 388.138535 217.927902 396.359497 211.106857 405.281128 206.342117 C 400.451874 204.773865 395.192749 203.277481 391.661682 199.401199 C 389.818542 197.591049 389.033997 194.043808 391.371048 192.31337 Z M 391.371048 192.31337 " transform="matrix(1,0,0,1,0,0)"/>
    <path style="stroke: none; fill-rule: nonzero; fill: rgb(0%,0%,0%); opacity: 1;" d="M 391.371048 192.31337 C 393.961807 190.433838 397.591919 190.686417 400.459335 191.783096 C 405.617752 193.96109 410.141129 197.607071 413.413986 202.151001 C 427.544769 200.339264 442.065903 203.60759 454.400177 210.627426 C 467.489304 217.970886 478.058685 229.185196 486.265045 241.631561 C 491.216721 249.408234 496.109924 257.226227 501.370316 264.802872 C 500.064331 266.056717 498.754532 267.303177 497.420685 268.522675 C 485.039154 249.049225 472.48027 228.383057 452.681366 215.575317 C 466.819702 229.315552 478.569763 245.431122 488.063782 262.678024 C 486.83873 264.307831 485.637146 265.95459 484.440643 267.603821 C 473.866013 250.642197 463.187866 233.314407 448.263779 219.764359 C 440.982666 213.311905 432.000961 207.826096 421.979462 207.779007 C 412.638 208.030075 404.238281 213.30278 397.851929 219.790695 C 391.396225 226.60704 386.519119 235.458542 386.233231 245.009628 C 385.887619 253.781631 389.96637 262.930038 397.551971 267.638321 C 403.247116 271.366043 411.441925 272.56723 417.103668 268.146606 C 420.899399 265.249207 421.94722 260.222992 421.87648 255.697311 C 419.265823 258.217529 415.998642 260.79538 412.104004 259.942856 C 405.121948 259.149628 403.197632 249.22757 407.844925 244.723282 C 411.572479 240.569 419.129669 241.091721 422.113419 245.889435 C 427.988403 254.646591 425.633057 269.059799 415.566437 273.688538 C 406.254166 277.428085 395.000305 273.962936 388.48941 266.557297 C 379.335556 255.93634 376.884506 239.590775 383.470016 227.051941 C 388.138535 217.927902 396.359497 211.106857 405.281128 206.342117 C 400.451874 204.773865 395.192749 203.277481 391.661682 199.401199 C 389.818542 197.591049 389.033997 194.043808 391.371048 192.31337 Z M 391.371048 192.31337 "/>
    <path style="fill: none; stroke-width: 0.1; stroke-linecap: butt; stroke-linejoin: miter; stroke: rgb(0%,0%,0%); opacity: 1;stroke-miterlimit: 10;" d="M 665.470062 202.259064 C 670.866394 197.574249 678.562134 195.683105 685.509079 197.365692 C 687.645676 198.03978 690.508148 199.091324 690.498627 201.804993 C 689.878632 203.735718 687.870926 204.482315 686.150665 205.093643 C 681.553558 206.557465 676.67218 206.527679 671.908264 206.787064 C 681.170837 214.136353 688.562607 224.298019 690.98381 236.018768 C 693.334778 246.457825 691.605865 258.173447 684.942337 266.740616 C 679.090424 274.377487 667.187103 277.443283 658.942383 271.945923 C 651.177872 265.7146 651.070831 253.376328 656.384705 245.535187 C 659.395386 241.093781 665.81424 238.923767 670.778809 241.183151 C 676.066589 244.121994 675.698868 252.910385 670.208191 255.433426 C 665.905609 257.725266 661.288895 255.251282 657.753418 252.721558 C 657.127792 255.425369 656.272644 258.243515 657.078873 261.014053 C 658.378601 267.493042 665.484055 272.181442 671.94696 270.471359 C 676.775986 269.070618 680.216446 264.965027 682.430801 260.636429 C 686.45549 252.430313 687.054489 242.716934 684.640289 233.952179 C 681.76796 223.365005 674.047302 214.270584 664.163574 209.560272 C 657.494034 206.177948 649.948013 204.779861 642.507217 204.950989 C 642.09584 202.703644 641.685013 200.456726 641.267227 198.217728 C 649.526611 197.642105 657.713562 199.569611 665.470062 202.259064 Z M 665.470062 202.259064 " transform="matrix(1,0,0,1,0,0)"/>
    <path style="stroke: none; fill-rule: nonzero; fill: rgb(99%,0%,0%); opacity: 1;" d="M 665.470062 202.259064 C 670.866394 197.574249 678.562134 195.683105 685.509079 197.365692 C 687.645676 198.03978 690.508148 199.091324 690.498627 201.804993 C 689.878632 203.735718 687.870926 204.482315 686.150665 205.093643 C 681.553558 206.557465 676.67218 206.527679 671.908264 206.787064 C 681.170837 214.136353 688.562607 224.298019 690.98381 236.018768 C 693.334778 246.457825 691.605865 258.173447 684.942337 266.740616 C 679.090424 274.377487 667.187103 277.443283 658.942383 271.945923 C 651.177872 265.7146 651.070831 253.376328 656.384705 245.535187 C 659.395386 241.093781 665.81424 238.923767 670.778809 241.183151 C 676.066589 244.121994 675.698868 252.910385 670.208191 255.433426 C 665.905609 257.725266 661.288895 255.251282 657.753418 252.721558 C 657.127792 255.425369 656.272644 258.243515 657.078873 261.014053 C 658.378601 267.493042 665.484055 272.181442 671.94696 270.471359 C 676.775986 269.070618 680.216446 264.965027 682.430801 260.636429 C 686.45549 252.430313 687.054489 242.716934 684.640289 233.952179 C 681.76796 223.365005 674.047302 214.270584 664.163574 209.560272 C 657.494034 206.177948 649.948013 204.779861 642.507217 204.950989 C 642.09584 202.703644 641.685013 200.456726 641.267227 198.217728 C 649.526611 197.642105 657.713562 199.569611 665.470062 202.259064 Z M 665.470062 202.259064 "/>
    <path style="fill: none; stroke-width: 0.1; stroke-linecap: butt; stroke-linejoin: miter; stroke: rgb(0%,0%,0%); opacity: 1;stroke-miterlimit: 10;" d="M 601.855423 214.00769 C 609.312531 207.882782 617.985931 203.24324 627.276276 200.59877 C 627.866791 202.988983 628.4664 205.380371 629.080887 207.77002 C 622.450073 210.338715 616.456589 214.525833 611.945084 220.037918 C 598.477585 236.673355 587.134644 254.874786 576.088837 273.167511 C 574.882812 271.8414 573.6707 270.537949 572.439224 269.251862 C 582.959564 252.716522 593.672058 236.297546 604.002411 219.644669 C 597.751709 224.965881 592.82074 231.592621 587.835205 238.057602 C 583.253326 244.285599 578.718262 250.560471 574.593613 257.103012 C 572.922409 255.558426 571.308441 253.958008 569.753738 252.30748 C 578.99585 238.440765 588.760361 224.541565 601.855423 214.00769 Z M 601.855423 214.00769 " transform="matrix(1,0,0,1,0,0)"/>
    <path style="stroke: none; fill-rule: nonzero; fill: rgb(99%,0%,0%); opacity: 1;" d="M 601.855423 214.00769 C 609.312531 207.882782 617.985931 203.24324 627.276276 200.59877 C 627.866791 202.988983 628.4664 205.380371 629.080887 207.77002 C 622.450073 210.338715 616.456589 214.525833 611.945084 220.037918 C 598.477585 236.673355 587.134644 254.874786 576.088837 273.167511 C 574.882812 271.8414 573.6707 270.537949 572.439224 269.251862 C 582.959564 252.716522 593.672058 236.297546 604.002411 219.644669 C 597.751709 224.965881 592.82074 231.592621 587.835205 238.057602 C 583.253326 244.285599 578.718262 250.560471 574.593613 257.103012 C 572.922409 255.558426 571.308441 253.958008 569.753738 252.30748 C 578.99585 238.440765 588.760361 224.541565 601.855423 214.00769 Z M 601.855423 214.00769 "/>
    <path style="fill: none; stroke-width: 0.1; stroke-linecap: butt; stroke-linejoin: miter; stroke: rgb(0%,0%,0%); opacity: 1;stroke-miterlimit: 10;" d="M 428.236908 210.72374 C 429.890793 211.123444 431.539536 211.533859 433.194458 211.969299 C 433.267258 215.25563 433.4944 218.543427 433.976151 221.799744 C 436.934891 221.662781 440.130173 221.742218 442.651535 223.525391 C 448.077972 226.92601 447.919754 236.665894 441.854797 239.30658 C 436.548126 241.751678 428.672318 239.21608 427.30719 233.126175 C 426.379532 229.931854 428.262375 227.055496 429.186737 224.143295 C 428.676773 219.684372 428.025635 215.225601 428.236908 210.72374 Z M 428.236908 210.72374 " transform="matrix(1,0,0,1,0,0)"/>
    <path style="stroke: none; fill-rule: nonzero; fill: rgb(100%,0%,0%); opacity: 1;" d="M 428.236908 210.72374 C 429.890793 211.123444 431.539536 211.533859 433.194458 211.969299 C 433.267258 215.25563 433.4944 218.543427 433.976151 221.799744 C 436.934891 221.662781 440.130173 221.742218 442.651535 223.525391 C 448.077972 226.92601 447.919754 236.665894 441.854797 239.30658 C 436.548126 241.751678 428.672318 239.21608 427.30719 233.126175 C 426.379532 229.931854 428.262375 227.055496 429.186737 224.143295 C 428.676773 219.684372 428.025635 215.225601 428.236908 210.72374 Z M 428.236908 210.72374 "/>
    <path style="fill: none; stroke-width: 0.1; stroke-linecap: butt; stroke-linejoin: miter; stroke: rgb(0%,0%,0%); opacity: 1;stroke-miterlimit: 10;" d="M 526.2285 230.109375 C 528.254822 230.311386 529.491287 232.508377 531.140289 233.580536 C 522.394333 242.875 513.367493 251.907822 504.84552 261.411392 C 503.219086 259.453201 501.145203 257.739212 500.08136 255.401352 C 508.330643 246.511139 517.005524 237.987686 526.2285 230.109375 Z M 526.2285 230.109375 " transform="matrix(1,0,0,1,0,0)"/>
    <path style="stroke: none; fill-rule: nonzero; fill: rgb(100%,0%,0%); opacity: 1;" d="M 526.2285 230.109375 C 528.254822 230.311386 529.491287 232.508377 531.140289 233.580536 C 522.394333 242.875 513.367493 251.907822 504.84552 261.411392 C 503.219086 259.453201 501.145203 257.739212 500.08136 255.401352 C 508.330643 246.511139 517.005524 237.987686 526.2285 230.109375 Z M 526.2285 230.109375 "/>
    <path style="fill: none; stroke-width: 0.1; stroke-linecap: butt; stroke-linejoin: miter; stroke: rgb(0%,0%,0%); opacity: 1;stroke-miterlimit: 10;" d="M 545.515579 234.508743 C 554.839722 242.812225 563.600494 251.707123 572.420059 260.537857 C 571.251968 262.191803 570.058502 263.82666 568.850098 265.44873 C 560.192108 256.330765 551.65744 247.075485 542.367584 238.590057 C 543.39447 237.213867 544.447403 235.857025 545.515579 234.508743 Z M 545.515579 234.508743 " transform="matrix(1,0,0,1,0,0)"/>
    <path style="stroke: none; fill-rule: nonzero; fill: rgb(0%,0%,0%); opacity: 1;" d="M 545.515579 234.508743 C 554.839722 242.812225 563.600494 251.707123 572.420059 260.537857 C 571.251968 262.191803 570.058502 263.82666 568.850098 265.44873 C 560.192108 256.330765 551.65744 247.075485 542.367584 238.590057 C 543.39447 237.213867 544.447403 235.857025 545.515579 234.508743 Z M 545.515579 234.508743 "/>
    <path style="fill: none; stroke-width: 0.1; stroke-linecap: butt; stroke-linejoin: miter; stroke: rgb(0%,0%,0%); opacity: 1;stroke-miterlimit: 10;" d="M 529.1483 240.568619 C 530.457016 239.059525 531.783813 237.566849 533.13446 236.091003 C 541.974274 244.2659 550.330902 252.953522 558.690979 261.615936 C 557.358917 263.529846 556.02034 265.437866 554.656067 267.327118 C 546.285156 258.283508 538.035995 249.113678 529.1483 240.568619 Z M 529.1483 240.568619 " transform="matrix(1,0,0,1,0,0)"/>
    <path style="stroke: none; fill-rule: nonzero; fill: rgb(0%,0%,0%); opacity: 1;" d="M 529.1483 240.568619 C 530.457016 239.059525 531.783813 237.566849 533.13446 236.091003 C 541.974274 244.2659 550.330902 252.953522 558.690979 261.615936 C 557.358917 263.529846 556.02034 265.437866 554.656067 267.327118 C 546.285156 258.283508 538.035995 249.113678 529.1483 240.568619 Z M 529.1483 240.568619 "/>
    <path style="fill: none; stroke-width: 0.1; stroke-linecap: butt; stroke-linejoin: miter; stroke: rgb(0%,0%,0%); opacity: 1;stroke-miterlimit: 10;" d="M 527.419662 242.841064 C 528.793457 244.182495 530.158768 245.538025 531.534332 246.890762 C 522.650452 258.004868 513.79715 269.150116 504.426392 279.861191 C 503.036072 277.737198 501.824799 275.509064 500.6436 273.271851 C 510.082413 263.590286 518.674164 253.139786 527.419662 242.841064 Z M 527.419662 242.841064 " transform="matrix(1,0,0,1,0,0)"/>
    <path style="stroke: none; fill-rule: nonzero; fill: rgb(100%,0%,0%); opacity: 1;" d="M 527.419662 242.841064 C 528.793457 244.182495 530.158768 245.538025 531.534332 246.890762 C 522.650452 258.004868 513.79715 269.150116 504.426392 279.861191 C 503.036072 277.737198 501.824799 275.509064 500.6436 273.271851 C 510.082413 263.590286 518.674164 253.139786 527.419662 242.841064 Z M 527.419662 242.841064 "/>
    <path style="fill: none; stroke-width: 0.1; stroke-linecap: butt; stroke-linejoin: miter; stroke: rgb(0%,0%,0%); opacity: 1;stroke-miterlimit: 10;" d="M 620.377533 253.020767 C 634.903534 259.165405 648.974976 267.749405 658.72226 280.39299 C 666.026825 289.780899 669.273361 302.515015 665.859634 314.083862 C 662.370636 326.123886 655.058701 337.728378 643.803162 343.825195 C 635.10762 348.445374 624.586334 350.22493 615.03656 347.397186 C 610.732147 346.043777 606.433334 343.608948 604.23996 339.509964 C 602.85994 336.921585 602.056137 333.579285 603.650909 330.903351 C 605.188995 327.902832 608.931946 327.054916 612.027298 327.012253 C 620.546356 327.452362 628.024292 332.360153 634.314194 337.760971 C 632.852951 338.239517 631.41449 338.728073 629.968231 339.212692 C 624.728592 335.971237 619.280396 332.570557 613.062042 331.72995 C 610.993607 331.442429 608.026047 332.495529 608.080048 334.958847 C 608.670242 338.671616 612.312546 340.809067 615.458801 342.22583 C 625.448792 346.261292 637.439911 342.285919 644.17807 334.166153 C 652.639832 324.213867 657.987961 311.133728 657.221207 297.946381 C 656.691025 289.168884 652.722977 280.747177 646.619644 274.467239 C 640.826172 268.326187 633.490448 263.887436 625.847397 260.435684 C 620.257385 276.047913 613.63446 291.296036 606.047653 306.040451 C 604.565872 304.663696 603.120667 303.263336 601.689804 301.849731 C 605.407242 294.353897 609.363235 286.901398 611.956299 278.923447 C 609.831757 283.285645 607.340652 287.45343 604.84317 291.608429 C 603.44632 290.042679 602.12973 288.421234 600.940826 286.702942 C 607.693939 275.637131 613.975174 264.291458 620.377533 253.020767 Z M 620.377533 253.020767 " transform="matrix(1,0,0,1,0,0)"/>
    <path style="stroke: none; fill-rule: nonzero; fill: rgb(1%,0%,0%); opacity: 1;" d="M 620.377533 253.020767 C 634.903534 259.165405 648.974976 267.749405 658.72226 280.39299 C 666.026825 289.780899 669.273361 302.515015 665.859634 314.083862 C 662.370636 326.123886 655.058701 337.728378 643.803162 343.825195 C 635.10762 348.445374 624.586334 350.22493 615.03656 347.397186 C 610.732147 346.043777 606.433334 343.608948 604.23996 339.509964 C 602.85994 336.921585 602.056137 333.579285 603.650909 330.903351 C 605.188995 327.902832 608.931946 327.054916 612.027298 327.012253 C 620.546356 327.452362 628.024292 332.360153 634.314194 337.760971 C 632.852951 338.239517 631.41449 338.728073 629.968231 339.212692 C 624.728592 335.971237 619.280396 332.570557 613.062042 331.72995 C 610.993607 331.442429 608.026047 332.495529 608.080048 334.958847 C 608.670242 338.671616 612.312546 340.809067 615.458801 342.22583 C 625.448792 346.261292 637.439911 342.285919 644.17807 334.166153 C 652.639832 324.213867 657.987961 311.133728 657.221207 297.946381 C 656.691025 289.168884 652.722977 280.747177 646.619644 274.467239 C 640.826172 268.326187 633.490448 263.887436 625.847397 260.435684 C 620.257385 276.047913 613.63446 291.296036 606.047653 306.040451 C 604.565872 304.663696 603.120667 303.263336 601.689804 301.849731 C 605.407242 294.353897 609.363235 286.901398 611.956299 278.923447 C 609.831757 283.285645 607.340652 287.45343 604.84317 291.608429 C 603.44632 290.042679 602.12973 288.421234 600.940826 286.702942 C 607.693939 275.637131 613.975174 264.291458 620.377533 253.020767 Z M 620.377533 253.020767 "/>
    <path style="fill: none; stroke-width: 0.1; stroke-linecap: butt; stroke-linejoin: miter; stroke: rgb(0%,0%,0%); opacity: 1;stroke-miterlimit: 10;" d="M 366.45076 261.966263 C 366.054901 258.646179 369.081406 253.798096 372.835068 255.95694 C 376.692795 260.234894 374.815643 267.703384 380.163422 271.15094 C 380.852661 268.763184 381.699707 266.414413 382.989807 264.280014 C 384.079193 265.600677 385.148117 266.950348 386.206055 268.307755 C 385.174255 279.205353 384.394547 290.824448 388.910263 301.097885 C 391.954041 307.966476 398.923004 311.930649 405.906342 313.794708 C 406.254883 316.76236 406.623856 319.731735 406.8423 322.718124 C 398.897415 320.686874 391.295151 316.692291 386.011108 310.300339 C 379.141373 302.243942 376.732239 291.141098 378.054123 280.785049 C 372.092514 276.316772 366.867767 269.631241 366.45076 261.966263 Z M 366.45076 261.966263 " transform="matrix(1,0,0,1,0,0)"/>
    <path style="stroke: none; fill-rule: nonzero; fill: rgb(100%,0%,0%); opacity: 1;" d="M 366.45076 261.966263 C 366.054901 258.646179 369.081406 253.798096 372.835068 255.95694 C 376.692795 260.234894 374.815643 267.703384 380.163422 271.15094 C 380.852661 268.763184 381.699707 266.414413 382.989807 264.280014 C 384.079193 265.600677 385.148117 266.950348 386.206055 268.307755 C 385.174255 279.205353 384.394547 290.824448 388.910263 301.097885 C 391.954041 307.966476 398.923004 311.930649 405.906342 313.794708 C 406.254883 316.76236 406.623856 319.731735 406.8423 322.718124 C 398.897415 320.686874 391.295151 316.692291 386.011108 310.300339 C 379.141373 302.243942 376.732239 291.141098 378.054123 280.785049 C 372.092514 276.316772 366.867767 269.631241 366.45076 261.966263 Z M 366.45076 261.966263 "/>
    <path style="fill: none; stroke-width: 0.1; stroke-linecap: butt; stroke-linejoin: miter; stroke: rgb(0%,0%,0%); opacity: 1;stroke-miterlimit: 10;" d="M 421.488541 280.459061 C 430.608215 271.212326 442.438568 265.020706 454.655411 260.91185 C 459.66272 272.712891 465.54538 284.113846 471.356506 295.531876 C 469.527283 296.87915 467.775101 298.322906 466.025528 299.766541 C 463.227127 294.558212 460.94017 289.103683 458.213974 283.865326 C 458.088654 287.461365 460.716827 290.230164 461.87439 293.456223 C 460.082367 294.603638 458.279449 295.72818 456.434891 296.781204 C 453.478958 288.070602 450.99826 279.185913 449.360352 270.13028 C 438.082916 274.378891 427.85556 282.690216 423.412399 294.135773 C 419.426971 303.931519 420.488007 314.873596 423.084381 324.879181 C 424.682907 331.016205 427.209503 337.331894 432.310822 341.401718 C 431.227524 343.892639 430.128036 346.376801 429.068802 348.880157 C 420.172958 342.732513 412.664627 334.055252 409.702393 323.491821 C 405.365234 308.35434 410.819183 291.656006 421.488541 280.459061 Z M 421.488541 280.459061 " transform="matrix(1,0,0,1,0,0)"/>
    <path style="stroke: none; fill-rule: nonzero; fill: rgb(0%,0%,0%); opacity: 1;" d="M 421.488541 280.459061 C 430.608215 271.212326 442.438568 265.020706 454.655411 260.91185 C 459.66272 272.712891 465.54538 284.113846 471.356506 295.531876 C 469.527283 296.87915 467.775101 298.322906 466.025528 299.766541 C 463.227127 294.558212 460.94017 289.103683 458.213974 283.865326 C 458.088654 287.461365 460.716827 290.230164 461.87439 293.456223 C 460.082367 294.603638 458.279449 295.72818 456.434891 296.781204 C 453.478958 288.070602 450.99826 279.185913 449.360352 270.13028 C 438.082916 274.378891 427.85556 282.690216 423.412399 294.135773 C 419.426971 303.931519 420.488007 314.873596 423.084381 324.879181 C 424.682907 331.016205 427.209503 337.331894 432.310822 341.401718 C 431.227524 343.892639 430.128036 346.376801 429.068802 348.880157 C 420.172958 342.732513 412.664627 334.055252 409.702393 323.491821 C 405.365234 308.35434 410.819183 291.656006 421.488541 280.459061 Z M 421.488541 280.459061 "/>
    <path style="fill: none; stroke-width: 0.1; stroke-linecap: butt; stroke-linejoin: miter; stroke: rgb(0%,0%,0%); opacity: 1;stroke-miterlimit: 10;" d="M 536.514038 304.107071 C 545.651337 291.498154 553.643433 278.12146 561.911407 264.941284 C 563.24852 266.53334 564.581635 268.136612 565.924393 269.737061 C 557.2966 282.58989 550.293839 296.500229 540.970154 308.882858 C 539.443192 307.32283 537.968002 305.72287 536.514038 304.107071 Z M 536.514038 304.107071 " transform="matrix(1,0,0,1,0,0)"/>
    <path style="stroke: none; fill-rule: nonzero; fill: rgb(99%,0%,0%); opacity: 1;" d="M 536.514038 304.107071 C 545.651337 291.498154 553.643433 278.12146 561.911407 264.941284 C 563.24852 266.53334 564.581635 268.136612 565.924393 269.737061 C 557.2966 282.58989 550.293839 296.500229 540.970154 308.882858 C 539.443192 307.32283 537.968002 305.72287 536.514038 304.107071 Z M 536.514038 304.107071 "/>
    <path style="fill: none; stroke-width: 0.1; stroke-linecap: butt; stroke-linejoin: miter; stroke: rgb(0%,0%,0%); opacity: 1;stroke-miterlimit: 10;" d="M 472.263153 288.176804 C 478.776749 281.271423 484.324219 273.54982 490.543259 266.394058 C 491.747375 268.485199 492.934494 270.59108 494.1091 272.706604 C 487.654083 279.528427 481.161652 286.319473 474.440048 292.880859 C 473.694534 291.316727 472.973831 289.746552 472.263153 288.176804 Z M 472.263153 288.176804 " transform="matrix(1,0,0,1,0,0)"/>
    <path style="stroke: none; fill-rule: nonzero; fill: rgb(100%,0%,0%); opacity: 1;" d="M 472.263153 288.176804 C 478.776749 281.271423 484.324219 273.54982 490.543259 266.394058 C 491.747375 268.485199 492.934494 270.59108 494.1091 272.706604 C 487.654083 279.528427 481.161652 286.319473 474.440048 292.880859 C 473.694534 291.316727 472.973831 289.746552 472.263153 288.176804 Z M 472.263153 288.176804 "/>
    <path style="fill: none; stroke-width: 0.1; stroke-linecap: butt; stroke-linejoin: miter; stroke: rgb(0%,0%,0%); opacity: 1;stroke-miterlimit: 10;" d="M 685.792374 273.419418 C 686.764282 272.129639 687.747147 270.847473 688.752838 269.578613 C 690.572266 272.359222 691.764099 275.510254 691.942429 278.855804 C 696.474045 276.872925 697.5186 271.121078 702.002747 269.27272 C 706.76355 268.001953 707.525269 274.608749 705.62915 277.53772 C 702.485107 282.029755 697.042023 284.09082 692.069427 285.87326 C 691.804611 301.216095 681.238586 314.660339 667.861099 321.31694 C 668.50061 318.664169 669.159744 316.02063 669.892517 313.394547 C 682.622437 304.870941 689.301636 288.375931 685.792374 273.419418 Z M 685.792374 273.419418 " transform="matrix(1,0,0,1,0,0)"/>
    <path style="stroke: none; fill-rule: nonzero; fill: rgb(0%,0%,0%); opacity: 1;" d="M 685.792374 273.419418 C 686.764282 272.129639 687.747147 270.847473 688.752838 269.578613 C 690.572266 272.359222 691.764099 275.510254 691.942429 278.855804 C 696.474045 276.872925 697.5186 271.121078 702.002747 269.27272 C 706.76355 268.001953 707.525269 274.608749 705.62915 277.53772 C 702.485107 282.029755 697.042023 284.09082 692.069427 285.87326 C 691.804611 301.216095 681.238586 314.660339 667.861099 321.31694 C 668.50061 318.664169 669.159744 316.02063 669.892517 313.394547 C 682.622437 304.870941 689.301636 288.375931 685.792374 273.419418 Z M 685.792374 273.419418 "/>
    <path style="fill: none; stroke-width: 0.1; stroke-linecap: butt; stroke-linejoin: miter; stroke: rgb(0%,0%,0%); opacity: 1;stroke-miterlimit: 10;" d="M 581.625198 270.476776 C 589.066574 278.215408 595.935913 286.477997 603.035843 294.526962 C 601.985168 296.332428 600.860794 298.093323 599.742218 299.855804 C 592.478729 291.927048 585.731003 283.524445 578.351898 275.687317 C 579.417679 273.935242 580.50827 272.198349 581.625198 270.476776 Z M 581.625198 270.476776 " transform="matrix(1,0,0,1,0,0)"/>
    <path style="stroke: none; fill-rule: nonzero; fill: rgb(0%,0%,0%); opacity: 1;" d="M 581.625198 270.476776 C 589.066574 278.215408 595.935913 286.477997 603.035843 294.526962 C 601.985168 296.332428 600.860794 298.093323 599.742218 299.855804 C 592.478729 291.927048 585.731003 283.524445 578.351898 275.687317 C 579.417679 273.935242 580.50827 272.198349 581.625198 270.476776 Z M 581.625198 270.476776 "/>
    <path style="fill: none; stroke-width: 0.1; stroke-linecap: butt; stroke-linejoin: miter; stroke: rgb(0%,0%,0%); opacity: 1;stroke-miterlimit: 10;" d="M 565.693008 279.995743 C 566.972504 277.79274 568.315201 275.627335 569.693848 273.484222 C 576.689499 280.964676 583.254456 288.831284 589.883957 296.635956 C 588.602371 298.303986 587.36554 300.002838 586.15831 301.72316 C 578.669022 295.137802 572.417664 287.322525 565.693008 279.995743 Z M 565.693008 279.995743 " transform="matrix(1,0,0,1,0,0)"/>
    <path style="stroke: none; fill-rule: nonzero; fill: rgb(0%,0%,0%); opacity: 1;" d="M 565.693008 279.995743 C 566.972504 277.79274 568.315201 275.627335 569.693848 273.484222 C 576.689499 280.964676 583.254456 288.831284 589.883957 296.635956 C 588.602371 298.303986 587.36554 300.002838 586.15831 301.72316 C 578.669022 295.137802 572.417664 287.322525 565.693008 279.995743 Z M 565.693008 279.995743 "/>
    <path style="fill: none; stroke-width: 0.1; stroke-linecap: butt; stroke-linejoin: miter; stroke: rgb(0%,0%,0%); opacity: 1;stroke-miterlimit: 10;" d="M 492.481049 281.064316 C 493.904892 279.72522 495.360443 278.419296 496.842041 277.139465 C 504.96463 289.906448 513.802979 302.230988 523.596283 313.77565 C 522.238708 315.132645 520.877579 316.485748 519.523514 317.842239 C 509.739639 306.169098 500.014816 294.360718 492.481049 281.064316 Z M 492.481049 281.064316 " transform="matrix(1,0,0,1,0,0)"/>
    <path style="stroke: none; fill-rule: nonzero; fill: rgb(0%,0%,0%); opacity: 1;" d="M 492.481049 281.064316 C 493.904892 279.72522 495.360443 278.419296 496.842041 277.139465 C 504.96463 289.906448 513.802979 302.230988 523.596283 313.77565 C 522.238708 315.132645 520.877579 316.485748 519.523514 317.842239 C 509.739639 306.169098 500.014816 294.360718 492.481049 281.064316 Z M 492.481049 281.064316 "/>
    <path style="fill: none; stroke-width: 0.1; stroke-linecap: butt; stroke-linejoin: miter; stroke: rgb(0%,0%,0%); opacity: 1;stroke-miterlimit: 10;" d="M 506.863266 283.472733 C 508.382675 281.981064 509.892532 280.480423 511.418198 278.990967 C 519.963974 290.392761 528.861847 301.531891 538.275635 312.233505 C 536.53215 314.240555 534.931015 316.363693 533.416641 318.546478 C 523.73616 307.511124 514.526917 296.020294 506.863266 283.472733 Z M 506.863266 283.472733 " transform="matrix(1,0,0,1,0,0)"/>
    <path style="stroke: none; fill-rule: nonzero; fill: rgb(0%,0%,0%); opacity: 1;" d="M 506.863266 283.472733 C 508.382675 281.981064 509.892532 280.480423 511.418198 278.990967 C 519.963974 290.392761 528.861847 301.531891 538.275635 312.233505 C 536.53215 314.240555 534.931015 316.363693 533.416641 318.546478 C 523.73616 307.511124 514.526917 296.020294 506.863266 283.472733 Z M 506.863266 283.472733 "/>
    <path style="fill: none; stroke-width: 0.1; stroke-linecap: butt; stroke-linejoin: miter; stroke: rgb(0%,0%,0%); opacity: 1;stroke-miterlimit: 10;" d="M 467.660141 303.20462 C 475.261139 297.037262 482.461884 290.404327 489.642319 283.757935 C 490.95694 286.070007 492.461441 288.268082 494.023514 290.425812 C 487.022629 297.410477 479.369141 303.770645 471.05014 309.129318 C 469.8983 307.163284 468.770645 305.185989 467.660141 303.20462 Z M 467.660141 303.20462 " transform="matrix(1,0,0,1,0,0)"/>
    <path style="stroke: none; fill-rule: nonzero; fill: rgb(100%,0%,0%); opacity: 1;" d="M 467.660141 303.20462 C 475.261139 297.037262 482.461884 290.404327 489.642319 283.757935 C 490.95694 286.070007 492.461441 288.268082 494.023514 290.425812 C 487.022629 297.410477 479.369141 303.770645 471.05014 309.129318 C 469.8983 307.163284 468.770645 305.185989 467.660141 303.20462 Z M 467.660141 303.20462 "/>
    <path style="fill: none; stroke-width: 0.1; stroke-linecap: butt; stroke-linejoin: miter; stroke: rgb(0%,0%,0%); opacity: 1;stroke-miterlimit: 10;" d="M 536.474274 322.323395 C 546.665131 310.074265 555.096512 296.518936 563.768295 283.189087 C 565.085785 284.553192 566.432465 285.896057 567.809219 287.216904 C 559.581406 300.895645 551.132782 314.494751 541.1884 327.010788 C 539.668121 325.38884 538.071365 323.855194 536.474274 322.323395 Z M 536.474274 322.323395 " transform="matrix(1,0,0,1,0,0)"/>
    <path style="stroke: none; fill-rule: nonzero; fill: rgb(99%,0%,0%); opacity: 1;" d="M 536.474274 322.323395 C 546.665131 310.074265 555.096512 296.518936 563.768295 283.189087 C 565.085785 284.553192 566.432465 285.896057 567.809219 287.216904 C 559.581406 300.895645 551.132782 314.494751 541.1884 327.010788 C 539.668121 325.38884 538.071365 323.855194 536.474274 322.323395 Z M 536.474274 322.323395 "/>
    <path style="fill: none; stroke-width: 0.1; stroke-linecap: butt; stroke-linejoin: miter; stroke: rgb(0%,0%,0%); opacity: 1;stroke-miterlimit: 10;" d="M 425.301331 315.734985 C 439.642822 314.146164 452.400055 306.377945 463.093079 297.081116 C 463.784943 298.578018 464.490112 300.079712 465.161072 301.596863 C 460.310333 305.655685 455.5383 309.865158 450.052383 313.065796 C 452.89679 313.145981 455.40062 311.762787 457.788284 310.388611 C 458.421829 312.096664 459.080765 313.797531 459.749893 315.503128 C 449.879669 320.42514 439.011688 323.361374 428.008194 324.09343 C 426.860077 321.390442 425.926697 318.601059 425.301331 315.734985 Z M 425.301331 315.734985 " transform="matrix(1,0,0,1,0,0)"/>
    <path style="stroke: none; fill-rule: nonzero; fill: rgb(100%,0%,0%); opacity: 1;" d="M 425.301331 315.734985 C 439.642822 314.146164 452.400055 306.377945 463.093079 297.081116 C 463.784943 298.578018 464.490112 300.079712 465.161072 301.596863 C 460.310333 305.655685 455.5383 309.865158 450.052383 313.065796 C 452.89679 313.145981 455.40062 311.762787 457.788284 310.388611 C 458.421829 312.096664 459.080765 313.797531 459.749893 315.503128 C 449.879669 320.42514 439.011688 323.361374 428.008194 324.09343 C 426.860077 321.390442 425.926697 318.601059 425.301331 315.734985 Z M 425.301331 315.734985 "/>
    <path style="fill: none; stroke-width: 0.1; stroke-linecap: butt; stroke-linejoin: miter; stroke: rgb(0%,0%,0%); opacity: 1;stroke-miterlimit: 10;" d="M 592.639694 299.829056 C 594.144455 301.27655 595.633316 302.745987 597.179047 304.164719 C 589.488861 316.715469 580.836868 328.648071 571.965622 340.383804 C 570.468384 339.290771 569.00563 338.166031 567.576157 337.004272 C 576.478546 324.99411 584.767044 312.535126 592.639694 299.829056 Z M 592.639694 299.829056 " transform="matrix(1,0,0,1,0,0)"/>
    <path style="stroke: none; fill-rule: nonzero; fill: rgb(1%,0%,0%); opacity: 1;" d="M 592.639694 299.829056 C 594.144455 301.27655 595.633316 302.745987 597.179047 304.164719 C 589.488861 316.715469 580.836868 328.648071 571.965622 340.383804 C 570.468384 339.290771 569.00563 338.166031 567.576157 337.004272 C 576.478546 324.99411 584.767044 312.535126 592.639694 299.829056 Z M 592.639694 299.829056 "/>
    <path style="fill: none; stroke-width: 0.1; stroke-linecap: butt; stroke-linejoin: miter; stroke: rgb(0%,0%,0%); opacity: 1;stroke-miterlimit: 10;" d="M 460.672119 308.140854 C 462.650696 306.964951 464.578461 305.705444 466.470871 304.389908 C 472.880051 318.881973 479.853897 333.149521 488.158737 346.662445 C 486.242859 348.063538 484.341171 349.483688 482.451599 350.915665 C 473.802307 337.425613 466.540359 323.04808 460.672119 308.140854 Z M 460.672119 308.140854 " transform="matrix(1,0,0,1,0,0)"/>
    <path style="stroke: none; fill-rule: nonzero; fill: rgb(0%,0%,0%); opacity: 1;" d="M 460.672119 308.140854 C 462.650696 306.964951 464.578461 305.705444 466.470871 304.389908 C 472.880051 318.881973 479.853897 333.149521 488.158737 346.662445 C 486.242859 348.063538 484.341171 349.483688 482.451599 350.915665 C 473.802307 337.425613 466.540359 323.04808 460.672119 308.140854 Z M 460.672119 308.140854 "/>
    <path style="fill: none; stroke-width: 0.1; stroke-linecap: butt; stroke-linejoin: miter; stroke: rgb(0%,0%,0%); opacity: 1;stroke-miterlimit: 10;" d="M 608.415329 308.094788 C 609.219193 306.711197 610.019913 305.325638 610.828842 303.943756 C 620.3638 314.134689 633.784988 320.900528 647.903839 320.852737 C 646.90007 322.922409 645.872437 324.980698 644.782944 327.006729 C 627.379608 328.046585 609.863159 322.049332 596.63414 310.72612 C 597.551804 309.194763 598.459671 307.657455 599.363556 306.11705 C 608.337814 314.057053 619.231201 320.879807 631.455383 321.794754 C 622.975082 318.757736 615.342926 313.781601 608.415329 308.094788 Z M 608.415329 308.094788 " transform="matrix(1,0,0,1,0,0)"/>
    <path style="stroke: none; fill-rule: nonzero; fill: rgb(0%,0%,0%); opacity: 1;" d="M 608.415329 308.094788 C 609.219193 306.711197 610.019913 305.325638 610.828842 303.943756 C 620.3638 314.134689 633.784988 320.900528 647.903839 320.852737 C 646.90007 322.922409 645.872437 324.980698 644.782944 327.006729 C 627.379608 328.046585 609.863159 322.049332 596.63414 310.72612 C 597.551804 309.194763 598.459671 307.657455 599.363556 306.11705 C 608.337814 314.057053 619.231201 320.879807 631.455383 321.794754 C 622.975082 318.757736 615.342926 313.781601 608.415329 308.094788 Z M 608.415329 308.094788 "/>
    <path style="fill: none; stroke-width: 0.1; stroke-linecap: butt; stroke-linejoin: miter; stroke: rgb(0%,0%,0%); opacity: 1;stroke-miterlimit: 10;" d="M 472.988907 311.811325 C 474.676804 310.691574 476.373352 309.580032 478.091003 308.49881 C 485.964798 322.427612 494.310852 336.09317 503.254257 349.363678 C 501.570084 350.63295 499.882858 351.895615 498.195877 353.156479 C 489.184067 339.758423 480.780716 325.952026 472.988907 311.811325 Z M 472.988907 311.811325 " transform="matrix(1,0,0,1,0,0)"/>
    <path style="stroke: none; fill-rule: nonzero; fill: rgb(0%,0%,0%); opacity: 1;" d="M 472.988907 311.811325 C 474.676804 310.691574 476.373352 309.580032 478.091003 308.49881 C 485.964798 322.427612 494.310852 336.09317 503.254257 349.363678 C 501.570084 350.63295 499.882858 351.895615 498.195877 353.156479 C 489.184067 339.758423 480.780716 325.952026 472.988907 311.811325 Z M 472.988907 311.811325 "/>
    <path style="fill: none; stroke-width: 0.1; stroke-linecap: butt; stroke-linejoin: miter; stroke: rgb(0%,0%,0%); opacity: 1;stroke-miterlimit: 10;" d="M 595.06604 313.660889 C 596.802109 314.955353 598.571335 316.211258 600.367432 317.438995 C 592.953674 330.718079 584.204025 343.257736 574.311935 354.809189 C 572.641266 353.53038 570.9888 352.239166 569.3452 350.942841 C 578.775955 339.139862 587.48555 326.736359 595.06604 313.660889 Z M 595.06604 313.660889 " transform="matrix(1,0,0,1,0,0)"/>
    <path style="stroke: none; fill-rule: nonzero; fill: rgb(1%,0%,0%); opacity: 1;" d="M 595.06604 313.660889 C 596.802109 314.955353 598.571335 316.211258 600.367432 317.438995 C 592.953674 330.718079 584.204025 343.257736 574.311935 354.809189 C 572.641266 353.53038 570.9888 352.239166 569.3452 350.942841 C 578.775955 339.139862 587.48555 326.736359 595.06604 313.660889 Z M 595.06604 313.660889 "/>
    <path style="fill: none; stroke-width: 0.1; stroke-linecap: butt; stroke-linejoin: miter; stroke: rgb(0%,0%,0%); opacity: 1;stroke-miterlimit: 10;" d="M 502.657425 341.628479 C 511.406815 334.368164 519.204971 326.035568 526.469727 317.308975 C 527.970627 318.814102 529.370667 320.418808 530.696426 322.091507 C 523.303925 331.016098 515.083145 339.215347 506.397247 346.876022 C 505.000717 345.233154 503.767166 343.464859 502.657425 341.628479 Z M 502.657425 341.628479 " transform="matrix(1,0,0,1,0,0)"/>
    <path style="stroke: none; fill-rule: nonzero; fill: rgb(99%,0%,0%); opacity: 1;" d="M 502.657425 341.628479 C 511.406815 334.368164 519.204971 326.035568 526.469727 317.308975 C 527.970627 318.814102 529.370667 320.418808 530.696426 322.091507 C 523.303925 331.016098 515.083145 339.215347 506.397247 346.876022 C 505.000717 345.233154 503.767166 343.464859 502.657425 341.628479 Z M 502.657425 341.628479 "/>
    <path style="fill: none; stroke-width: 0.1; stroke-linecap: butt; stroke-linejoin: miter; stroke: rgb(0%,0%,0%); opacity: 1;stroke-miterlimit: 10;" d="M 670.70607 323.800568 C 672.508942 322.874619 674.316574 321.96167 676.14003 321.056534 C 677.568558 330.368332 677.509338 339.819305 676.312546 349.154572 C 681.707886 345.530319 686.144592 340.446854 692.157318 337.790176 C 694.573761 336.715027 698.407394 336.337799 699.582077 339.348938 C 701.019501 343.890793 697.206314 348.410461 693.163666 350.045181 C 686.757431 352.498825 680.212616 354.595718 673.892639 357.272812 C 668.521652 368.320587 658.855347 377.271851 647.197586 381.299576 C 647.247238 379.195847 647.38121 377.111053 647.525467 375.021835 C 658.090179 370.649643 667.752365 362.011169 670.30748 350.498383 C 672.018234 341.70932 671.748383 332.653 670.70607 323.800568 Z M 670.70607 323.800568 " transform="matrix(1,0,0,1,0,0)"/>
    <path style="stroke: none; fill-rule: nonzero; fill: rgb(0%,0%,0%); opacity: 1;" d="M 670.70607 323.800568 C 672.508942 322.874619 674.316574 321.96167 676.14003 321.056534 C 677.568558 330.368332 677.509338 339.819305 676.312546 349.154572 C 681.707886 345.530319 686.144592 340.446854 692.157318 337.790176 C 694.573761 336.715027 698.407394 336.337799 699.582077 339.348938 C 701.019501 343.890793 697.206314 348.410461 693.163666 350.045181 C 686.757431 352.498825 680.212616 354.595718 673.892639 357.272812 C 668.521652 368.320587 658.855347 377.271851 647.197586 381.299576 C 647.247238 379.195847 647.38121 377.111053 647.525467 375.021835 C 658.090179 370.649643 667.752365 362.011169 670.30748 350.498383 C 672.018234 341.70932 671.748383 332.653 670.70607 323.800568 Z M 670.70607 323.800568 "/>
    <path style="fill: none; stroke-width: 0.1; stroke-linecap: butt; stroke-linejoin: miter; stroke: rgb(0%,0%,0%); opacity: 1;stroke-miterlimit: 10;" d="M 395.912415 322.263641 C 397.658981 322.98819 399.409576 323.726456 401.158981 324.469391 C 400.317459 333.524582 401.936981 343.103256 407.318344 350.611908 C 413.406158 359.4487 423.574188 364.660614 433.908112 366.705276 C 443.835617 368.621506 454.235245 367.963211 463.907623 365.055557 C 473.744888 362.249481 482.435303 356.614609 490.880203 351.014893 C 492.003174 352.741364 493.188965 354.428879 494.423721 356.089005 C 486.744843 361.639526 478.357391 366.094147 469.682526 369.862839 C 476.05722 368.667542 482.2453 366.579041 488.03894 363.659531 C 489.285751 365.412643 490.556778 367.146149 491.864685 368.866699 C 474.046326 377.42421 453.16481 378.652374 434.073334 374.084976 C 422.395767 371.095581 410.550537 365.800735 403.059982 355.984756 C 400.797897 353.259949 399.87619 349.775558 398.254456 346.729889 C 394.705841 344.315079 390.095367 344.710358 386.426514 342.562256 C 383.463608 340.940628 379.847046 338.81601 379.694672 335.021118 C 380.004211 331.067917 385.194031 329.942322 388.085342 331.90181 C 390.839371 333.894608 393.202133 336.447083 396.365128 337.861557 C 395.730453 332.686218 395.534897 327.464371 395.912415 322.263641 Z M 395.912415 322.263641 " transform="matrix(1,0,0,1,0,0)"/>
    <path style="stroke: none; fill-rule: nonzero; fill: rgb(99%,0%,0%); opacity: 1;" d="M 395.912415 322.263641 C 397.658981 322.98819 399.409576 323.726456 401.158981 324.469391 C 400.317459 333.524582 401.936981 343.103256 407.318344 350.611908 C 413.406158 359.4487 423.574188 364.660614 433.908112 366.705276 C 443.835617 368.621506 454.235245 367.963211 463.907623 365.055557 C 473.744888 362.249481 482.435303 356.614609 490.880203 351.014893 C 492.003174 352.741364 493.188965 354.428879 494.423721 356.089005 C 486.744843 361.639526 478.357391 366.094147 469.682526 369.862839 C 476.05722 368.667542 482.2453 366.579041 488.03894 363.659531 C 489.285751 365.412643 490.556778 367.146149 491.864685 368.866699 C 474.046326 377.42421 453.16481 378.652374 434.073334 374.084976 C 422.395767 371.095581 410.550537 365.800735 403.059982 355.984756 C 400.797897 353.259949 399.87619 349.775558 398.254456 346.729889 C 394.705841 344.315079 390.095367 344.710358 386.426514 342.562256 C 383.463608 340.940628 379.847046 338.81601 379.694672 335.021118 C 380.004211 331.067917 385.194031 329.942322 388.085342 331.90181 C 390.839371 333.894608 393.202133 336.447083 396.365128 337.861557 C 395.730453 332.686218 395.534897 327.464371 395.912415 322.263641 Z M 395.912415 322.263641 "/>
    <path style="fill: none; stroke-width: 0.1; stroke-linecap: butt; stroke-linejoin: miter; stroke: rgb(0%,0%,0%); opacity: 1;stroke-miterlimit: 10;" d="M 533.849777 325.494949 C 540.601501 332.51889 547.991745 338.889725 555.712112 344.82605 C 554.498062 346.398071 553.26947 347.957672 552.010513 349.492554 C 544.401962 343.393127 537.071259 336.908051 530.427689 329.765167 C 531.572311 328.346039 532.720352 326.92807 533.849777 325.494949 Z M 533.849777 325.494949 " transform="matrix(1,0,0,1,0,0)"/>
    <path style="stroke: none; fill-rule: nonzero; fill: rgb(0%,0%,0%); opacity: 1;" d="M 533.849777 325.494949 C 540.601501 332.51889 547.991745 338.889725 555.712112 344.82605 C 554.498062 346.398071 553.26947 347.957672 552.010513 349.492554 C 544.401962 343.393127 537.071259 336.908051 530.427689 329.765167 C 531.572311 328.346039 532.720352 326.92807 533.849777 325.494949 Z M 533.849777 325.494949 "/>
    <path style="fill: none; stroke-width: 0.1; stroke-linecap: butt; stroke-linejoin: miter; stroke: rgb(0%,0%,0%); opacity: 1;stroke-miterlimit: 10;" d="M 544.160431 330.335068 C 545.926743 328.265854 547.652847 326.1604 549.210892 323.926544 C 555.656906 330.767868 562.520065 337.223358 569.674438 343.322021 C 568.306976 344.960556 566.938324 346.596741 565.555756 348.220383 C 557.983246 342.805542 550.94342 336.696045 544.160431 330.335068 Z M 544.160431 330.335068 " transform="matrix(1,0,0,1,0,0)"/>
    <path style="stroke: none; fill-rule: nonzero; fill: rgb(0%,0%,0%); opacity: 1;" d="M 544.160431 330.335068 C 545.926743 328.265854 547.652847 326.1604 549.210892 323.926544 C 555.656906 330.767868 562.520065 337.223358 569.674438 343.322021 C 568.306976 344.960556 566.938324 346.596741 565.555756 348.220383 C 557.983246 342.805542 550.94342 336.696045 544.160431 330.335068 Z M 544.160431 330.335068 "/>
    <path style="fill: none; stroke-width: 0.1; stroke-linecap: butt; stroke-linejoin: miter; stroke: rgb(0%,0%,0%); opacity: 1;stroke-miterlimit: 10;" d="M 444.427643 331.385254 C 449.415192 328.022339 455.838943 325.09906 461.876999 327.195023 C 468.281357 329.386917 469.812378 338.536865 465.333115 343.267365 C 459.887131 348.942505 451.579529 350.221298 444.088867 350.642685 C 444.353088 348.68602 444.645218 346.738876 444.935333 344.793076 C 449.94017 344.724564 455.387268 344.596863 459.709518 341.738617 C 462.565704 339.952927 463.595276 335.329361 461.040527 332.878845 C 459.528076 331.302734 457.087769 331.316742 455.094284 331.645645 C 449.980347 332.808716 445.978561 336.722656 443.383392 341.120575 C 439.546539 347.652664 438.340332 355.374069 438.165512 362.84697 C 435.653 362.293976 433.147766 361.746399 430.646454 361.185791 C 431.560165 350.152664 435.013397 338.151321 444.427643 331.385254 Z M 444.427643 331.385254 " transform="matrix(1,0,0,1,0,0)"/>
    <path style="stroke: none; fill-rule: nonzero; fill: rgb(0%,0%,0%); opacity: 1;" d="M 444.427643 331.385254 C 449.415192 328.022339 455.838943 325.09906 461.876999 327.195023 C 468.281357 329.386917 469.812378 338.536865 465.333115 343.267365 C 459.887131 348.942505 451.579529 350.221298 444.088867 350.642685 C 444.353088 348.68602 444.645218 346.738876 444.935333 344.793076 C 449.94017 344.724564 455.387268 344.596863 459.709518 341.738617 C 462.565704 339.952927 463.595276 335.329361 461.040527 332.878845 C 459.528076 331.302734 457.087769 331.316742 455.094284 331.645645 C 449.980347 332.808716 445.978561 336.722656 443.383392 341.120575 C 439.546539 347.652664 438.340332 355.374069 438.165512 362.84697 C 435.653 362.293976 433.147766 361.746399 430.646454 361.185791 C 431.560165 350.152664 435.013397 338.151321 444.427643 331.385254 Z M 444.427643 331.385254 "/>
    <path style="fill: none; stroke-width: 0.1; stroke-linecap: butt; stroke-linejoin: miter; stroke: rgb(0%,0%,0%); opacity: 1;stroke-miterlimit: 10;" d="M 504.287491 354.184723 C 513.030884 347.647705 520.986954 340.096573 528.298325 332.002472 C 529.87468 333.510696 531.385269 335.094864 532.851913 336.723007 C 524.259247 346.117859 514.717255 354.668182 504.214661 361.883423 C 502.918045 360.059326 501.60527 358.251221 500.371399 356.39444 C 501.730652 355.766953 503.085007 355.099014 504.287491 354.184723 Z M 504.287491 354.184723 " transform="matrix(1,0,0,1,0,0)"/>
    <path style="stroke: none; fill-rule: nonzero; fill: rgb(99%,0%,0%); opacity: 1;" d="M 504.287491 354.184723 C 513.030884 347.647705 520.986954 340.096573 528.298325 332.002472 C 529.87468 333.510696 531.385269 335.094864 532.851913 336.723007 C 524.259247 346.117859 514.717255 354.668182 504.214661 361.883423 C 502.918045 360.059326 501.60527 358.251221 500.371399 356.39444 C 501.730652 355.766953 503.085007 355.099014 504.287491 354.184723 Z M 504.287491 354.184723 "/>
    <path style="fill: none; stroke-width: 0.1; stroke-linecap: butt; stroke-linejoin: miter; stroke: rgb(0%,0%,0%); opacity: 1;stroke-miterlimit: 10;" d="M 529.316833 380.586411 C 540.012085 370.092834 549.921509 358.840439 559.45961 347.295425 C 560.902496 348.412582 562.355942 349.541321 563.792587 350.688599 C 554.094803 362.497513 543.774536 373.789124 532.722595 384.344955 C 531.592606 383.076645 530.452454 381.829636 529.316833 380.586411 Z M 529.316833 380.586411 " transform="matrix(1,0,0,1,0,0)"/>
    <path style="stroke: none; fill-rule: nonzero; fill: rgb(1%,0%,0%); opacity: 1;" d="M 529.316833 380.586411 C 540.012085 370.092834 549.921509 358.840439 559.45961 347.295425 C 560.902496 348.412582 562.355942 349.541321 563.792587 350.688599 C 554.094803 362.497513 543.774536 373.789124 532.722595 384.344955 C 531.592606 383.076645 530.452454 381.829636 529.316833 380.586411 Z M 529.316833 380.586411 "/>
    <path style="fill: none; stroke-width: 0.1; stroke-linecap: butt; stroke-linejoin: miter; stroke: rgb(0%,0%,0%); opacity: 1;stroke-miterlimit: 10;" d="M 634.366028 352.710114 C 636.69017 352.020325 639.007736 351.313828 641.339615 350.623184 C 643.665024 357.521332 643.661957 364.899658 643.443619 372.094421 C 642.840439 381.380356 640.788635 390.767487 636.036835 398.862167 C 641.987823 399.920334 646.728073 395.293045 650.99852 391.890182 C 654.244965 389.332962 659.746078 387.841599 662.954544 391.177658 C 665.163193 394.795715 660.935379 397.763229 658.044632 399.116211 C 650.635773 402.159454 642.251831 404.99173 634.260056 402.607224 C 628.584152 412.521622 621.791153 421.828598 613.741745 429.953094 C 618.596573 431.800842 624.471756 429.829941 628.769745 433.192749 C 630.588303 434.622696 632.234344 437.515625 630.495682 439.626602 C 628.056808 442.233414 624.088608 441.768677 620.85936 441.723907 C 615.486374 441.540146 610.226639 439.134689 607.027496 434.73793 C 595.601151 442.067413 581.420135 443.987442 568.158493 442.029724 C 570.081177 446.174683 573.445862 449.556351 574.971252 453.881287 C 575.851517 456.367828 573.492325 458.633301 571.037918 457.708588 C 563.993332 455.397934 559.991913 447.90361 559.363693 440.858398 C 552.927536 439.987854 547.013412 437.110809 541.593613 433.661057 C 543.896011 431.060181 546.275955 428.529221 548.565506 425.916367 C 561.411804 430.718658 575.77388 431.842026 588.998169 427.885483 C 607.570511 422.593826 622.857773 407.976303 629.914673 390.116226 C 634.772552 378.337891 635.954819 365.289795 634.366028 352.710114 Z M 634.366028 352.710114 " transform="matrix(1,0,0,1,0,0)"/>
    <path style="stroke: none; fill-rule: nonzero; fill: rgb(1%,0%,0%); opacity: 1;" d="M 634.366028 352.710114 C 636.69017 352.020325 639.007736 351.313828 641.339615 350.623184 C 643.665024 357.521332 643.661957 364.899658 643.443619 372.094421 C 642.840439 381.380356 640.788635 390.767487 636.036835 398.862167 C 641.987823 399.920334 646.728073 395.293045 650.99852 391.890182 C 654.244965 389.332962 659.746078 387.841599 662.954544 391.177658 C 665.163193 394.795715 660.935379 397.763229 658.044632 399.116211 C 650.635773 402.159454 642.251831 404.99173 634.260056 402.607224 C 628.584152 412.521622 621.791153 421.828598 613.741745 429.953094 C 618.596573 431.800842 624.471756 429.829941 628.769745 433.192749 C 630.588303 434.622696 632.234344 437.515625 630.495682 439.626602 C 628.056808 442.233414 624.088608 441.768677 620.85936 441.723907 C 615.486374 441.540146 610.226639 439.134689 607.027496 434.73793 C 595.601151 442.067413 581.420135 443.987442 568.158493 442.029724 C 570.081177 446.174683 573.445862 449.556351 574.971252 453.881287 C 575.851517 456.367828 573.492325 458.633301 571.037918 457.708588 C 563.993332 455.397934 559.991913 447.90361 559.363693 440.858398 C 552.927536 439.987854 547.013412 437.110809 541.593613 433.661057 C 543.896011 431.060181 546.275955 428.529221 548.565506 425.916367 C 561.411804 430.718658 575.77388 431.842026 588.998169 427.885483 C 607.570511 422.593826 622.857773 407.976303 629.914673 390.116226 C 634.772552 378.337891 635.954819 365.289795 634.366028 352.710114 Z M 634.366028 352.710114 "/>
    <path style="fill: none; stroke-width: 0.1; stroke-linecap: butt; stroke-linejoin: miter; stroke: rgb(0%,0%,0%); opacity: 1;stroke-miterlimit: 10;" d="M 576.959854 356.489288 C 578.28743 355.073715 579.613022 353.652679 580.918808 352.213287 C 595.385376 362.90506 611.366409 372.18129 629.064453 376.192108 C 627.948318 378.705185 626.928055 381.25856 625.926529 383.820587 C 610.780594 382.777832 596.601593 376.653931 583.269897 369.783707 C 576.411591 366.275177 569.866699 362.199127 563.434174 357.975449 C 564.69014 356.490906 565.980927 355.035294 567.234146 353.546158 C 576.838989 359.739365 586.638535 365.837418 597.392197 369.852234 C 590.568512 365.416092 583.633484 361.148163 576.959854 356.489288 Z M 576.959854 356.489288 " transform="matrix(1,0,0,1,0,0)"/>
    <path style="stroke: none; fill-rule: nonzero; fill: rgb(0%,0%,0%); opacity: 1;" d="M 576.959854 356.489288 C 578.28743 355.073715 579.613022 353.652679 580.918808 352.213287 C 595.385376 362.90506 611.366409 372.18129 629.064453 376.192108 C 627.948318 378.705185 626.928055 381.25856 625.926529 383.820587 C 610.780594 382.777832 596.601593 376.653931 583.269897 369.783707 C 576.411591 366.275177 569.866699 362.199127 563.434174 357.975449 C 564.69014 356.490906 565.980927 355.035294 567.234146 353.546158 C 576.838989 359.739365 586.638535 365.837418 597.392197 369.852234 C 590.568512 365.416092 583.633484 361.148163 576.959854 356.489288 Z M 576.959854 356.489288 "/>
    <path style="fill: none; stroke-width: 0.1; stroke-linecap: butt; stroke-linejoin: miter; stroke: rgb(0%,0%,0%); opacity: 1;stroke-miterlimit: 10;" d="M 490.125183 362.430176 C 492.063553 361.068069 494.034058 359.750076 496.030838 358.469604 C 502.809158 368.17778 510.268204 377.441193 518.651917 385.816559 C 516.944504 387.096542 515.233627 388.371445 513.537674 389.661652 C 504.891891 381.350632 497.155685 372.133881 490.125183 362.430176 Z M 490.125183 362.430176 " transform="matrix(1,0,0,1,0,0)"/>
    <path style="stroke: none; fill-rule: nonzero; fill: rgb(0%,0%,0%); opacity: 1;" d="M 490.125183 362.430176 C 492.063553 361.068069 494.034058 359.750076 496.030838 358.469604 C 502.809158 368.17778 510.268204 377.441193 518.651917 385.816559 C 516.944504 387.096542 515.233627 388.371445 513.537674 389.661652 C 504.891891 381.350632 497.155685 372.133881 490.125183 362.430176 Z M 490.125183 362.430176 "/>
    <path style="fill: none; stroke-width: 0.1; stroke-linecap: butt; stroke-linejoin: miter; stroke: rgb(0%,0%,0%); opacity: 1;stroke-miterlimit: 10;" d="M 528.547852 392.634064 C 540.400894 382.586823 551.572754 371.746017 561.833145 360.073761 C 563.315948 361.213196 564.817368 362.342407 566.336761 363.455276 C 555.587936 375.097076 543.273849 385.165833 531.032379 395.185028 C 530.195541 394.330505 529.367371 393.480179 528.547852 392.634064 Z M 528.547852 392.634064 " transform="matrix(1,0,0,1,0,0)"/>
    <path style="stroke: none; fill-rule: nonzero; fill: rgb(1%,0%,0%); opacity: 1;" d="M 528.547852 392.634064 C 540.400894 382.586823 551.572754 371.746017 561.833145 360.073761 C 563.315948 361.213196 564.817368 362.342407 566.336761 363.455276 C 555.587936 375.097076 543.273849 385.165833 531.032379 395.185028 C 530.195541 394.330505 529.367371 393.480179 528.547852 392.634064 Z M 528.547852 392.634064 "/>
    <path style="fill: none; stroke-width: 0.1; stroke-linecap: butt; stroke-linejoin: miter; stroke: rgb(0%,0%,0%); opacity: 1;stroke-miterlimit: 10;" d="M 506.155167 364.571808 C 507.971466 363.543716 509.784821 362.509232 511.597595 361.466278 C 517.919205 369.9048 524.215271 378.369232 530.957703 386.483139 C 529.456619 387.736115 527.958267 388.988632 526.427505 390.200836 C 519.180328 382.058487 512.517303 373.415176 506.155167 364.571808 Z M 506.155167 364.571808 " transform="matrix(1,0,0,1,0,0)"/>
    <path style="stroke: none; fill-rule: nonzero; fill: rgb(0%,0%,0%); opacity: 1;" d="M 506.155167 364.571808 C 507.971466 363.543716 509.784821 362.509232 511.597595 361.466278 C 517.919205 369.9048 524.215271 378.369232 530.957703 386.483139 C 529.456619 387.736115 527.958267 388.988632 526.427505 390.200836 C 519.180328 382.058487 512.517303 373.415176 506.155167 364.571808 Z M 506.155167 364.571808 "/>
    <path style="fill: none; stroke-width: 0.1; stroke-linecap: butt; stroke-linejoin: miter; stroke: rgb(0%,0%,0%); opacity: 1;stroke-miterlimit: 10;" d="M 430.901749 376.922363 C 433.804962 377.61821 436.703537 378.345367 439.582718 379.157471 C 442.302795 397.215256 452.60321 413.998077 467.448517 424.621628 C 477.908066 432.136688 491.263611 435.994781 504.086487 433.836151 C 517.747559 431.720337 529.915817 424.068893 539.800934 414.678284 C 542.295853 415.833572 544.791855 416.997772 547.241241 418.265762 C 538.025726 428.49205 526.628754 436.892776 513.669479 441.703064 C 514.163742 445.007217 514.761978 448.491974 513.755585 451.765518 C 512.261703 455.307526 510.039627 458.666153 506.914444 460.971008 C 504.601639 462.599152 501.111877 463.286987 498.874649 461.164886 C 496.664444 458.769226 497.794418 454.998398 500.069046 453.075027 C 502.592941 450.218613 506.652954 447.372864 506.029556 443.075562 C 492.854462 446.289246 478.244949 445.045593 466.732498 437.480988 C 461.768707 443.1745 454.672684 447.088898 447.106567 447.743851 C 445.260971 447.854218 443.017883 447.822754 441.984848 446.000793 C 441.761536 441.72406 445.981644 439.015518 449.528702 437.732162 C 453.611084 436.399673 459.249023 438.454819 462.115936 434.403824 C 450.090424 426.337372 440.431747 414.731491 434.97142 401.298187 C 428.9487 401.498566 422.400467 400.153305 418.152527 395.560257 C 415.124222 392.257278 412.878326 387.307587 414.789444 382.910522 C 416.099533 382.518463 417.454819 381.663803 418.872147 382.185257 C 425.253281 383.625168 426.553619 392.227402 433.290604 393.053452 C 432.293716 387.707962 431.240479 382.357697 430.901749 376.922363 Z M 430.901749 376.922363 " transform="matrix(1,0,0,1,0,0)"/>
    <path style="stroke: none; fill-rule: nonzero; fill: rgb(0%,0%,0%); opacity: 1;" d="M 430.901749 376.922363 C 433.804962 377.61821 436.703537 378.345367 439.582718 379.157471 C 442.302795 397.215256 452.60321 413.998077 467.448517 424.621628 C 477.908066 432.136688 491.263611 435.994781 504.086487 433.836151 C 517.747559 431.720337 529.915817 424.068893 539.800934 414.678284 C 542.295853 415.833572 544.791855 416.997772 547.241241 418.265762 C 538.025726 428.49205 526.628754 436.892776 513.669479 441.703064 C 514.163742 445.007217 514.761978 448.491974 513.755585 451.765518 C 512.261703 455.307526 510.039627 458.666153 506.914444 460.971008 C 504.601639 462.599152 501.111877 463.286987 498.874649 461.164886 C 496.664444 458.769226 497.794418 454.998398 500.069046 453.075027 C 502.592941 450.218613 506.652954 447.372864 506.029556 443.075562 C 492.854462 446.289246 478.244949 445.045593 466.732498 437.480988 C 461.768707 443.1745 454.672684 447.088898 447.106567 447.743851 C 445.260971 447.854218 443.017883 447.822754 441.984848 446.000793 C 441.761536 441.72406 445.981644 439.015518 449.528702 437.732162 C 453.611084 436.399673 459.249023 438.454819 462.115936 434.403824 C 450.090424 426.337372 440.431747 414.731491 434.97142 401.298187 C 428.9487 401.498566 422.400467 400.153305 418.152527 395.560257 C 415.124222 392.257278 412.878326 387.307587 414.789444 382.910522 C 416.099533 382.518463 417.454819 381.663803 418.872147 382.185257 C 425.253281 383.625168 426.553619 392.227402 433.290604 393.053452 C 432.293716 387.707962 431.240479 382.357697 430.901749 376.922363 Z M 430.901749 376.922363 "/>
    <path style="fill: none; stroke-width: 0.1; stroke-linecap: butt; stroke-linejoin: miter; stroke: rgb(0%,0%,0%); opacity: 1;stroke-miterlimit: 10;" d="M 512.646484 396.445145 C 515.448578 393.699402 518.330978 391.03624 521.254166 388.418823 C 522.366028 389.479858 523.492401 390.537949 524.632034 391.589569 C 521.603729 394.104843 518.580505 396.629105 515.401108 398.951508 C 514.712448 398.324905 513.335144 397.071732 512.646484 396.445145 Z M 512.646484 396.445145 " transform="matrix(1,0,0,1,0,0)"/>
    <path style="stroke: none; fill-rule: nonzero; fill: rgb(1%,0%,0%); opacity: 1;" d="M 512.646484 396.445145 C 515.448578 393.699402 518.330978 391.03624 521.254166 388.418823 C 522.366028 389.479858 523.492401 390.537949 524.632034 391.589569 C 521.603729 394.104843 518.580505 396.629105 515.401108 398.951508 C 514.712448 398.324905 513.335144 397.071732 512.646484 396.445145 Z M 512.646484 396.445145 "/>
    <path style="fill: none; stroke-width: 0.1; stroke-linecap: butt; stroke-linejoin: miter; stroke: rgb(0%,0%,0%); opacity: 1;stroke-miterlimit: 10;" d="M 522.622559 397.7258 C 524.096313 396.360687 525.572784 394.995209 526.98465 393.562881 C 530.189911 396.248459 533.526932 398.786987 537.087006 400.99617 C 535.542084 399.586029 534.018845 398.164948 532.529892 396.711365 C 533.919113 395.558167 535.343735 394.446106 536.795197 393.366821 C 541.646606 398.678177 545.976837 404.653931 552.054916 408.671295 C 559.573746 413.798553 568.714722 416.726639 577.841034 416.437622 C 581.499191 416.07663 586.553543 415.260574 587.606857 411.02739 C 587.390182 408.055725 584.705399 406.156036 582.276001 404.935516 C 576.563599 402.289062 569.433548 401.623901 563.820053 404.861664 C 561.956161 405.90062 560.187546 407.094055 558.353775 408.175476 C 556.640137 406.937988 554.919708 405.721603 553.241165 404.455353 C 558.396881 399.303711 565.926514 397.341919 573.052933 397.740616 C 578.834747 398.012726 585.1931 399.248108 589.29805 403.687225 C 592.235046 406.709183 592.705826 411.820084 590.178635 415.238892 C 587.422607 419.115814 582.520401 420.73407 577.970688 421.173355 C 566.202393 422.143402 554.866486 417.646957 544.580109 412.403809 C 536.775116 408.290253 529.412827 403.353699 522.622559 397.7258 Z M 522.622559 397.7258 " transform="matrix(1,0,0,1,0,0)"/>
    <path style="stroke: none; fill-rule: nonzero; fill: rgb(0%,0%,0%); opacity: 1;" d="M 522.622559 397.7258 C 524.096313 396.360687 525.572784 394.995209 526.98465 393.562881 C 530.189911 396.248459 533.526932 398.786987 537.087006 400.99617 C 535.542084 399.586029 534.018845 398.164948 532.529892 396.711365 C 533.919113 395.558167 535.343735 394.446106 536.795197 393.366821 C 541.646606 398.678177 545.976837 404.653931 552.054916 408.671295 C 559.573746 413.798553 568.714722 416.726639 577.841034 416.437622 C 581.499191 416.07663 586.553543 415.260574 587.606857 411.02739 C 587.390182 408.055725 584.705399 406.156036 582.276001 404.935516 C 576.563599 402.289062 569.433548 401.623901 563.820053 404.861664 C 561.956161 405.90062 560.187546 407.094055 558.353775 408.175476 C 556.640137 406.937988 554.919708 405.721603 553.241165 404.455353 C 558.396881 399.303711 565.926514 397.341919 573.052933 397.740616 C 578.834747 398.012726 585.1931 399.248108 589.29805 403.687225 C 592.235046 406.709183 592.705826 411.820084 590.178635 415.238892 C 587.422607 419.115814 582.520401 420.73407 577.970688 421.173355 C 566.202393 422.143402 554.866486 417.646957 544.580109 412.403809 C 536.775116 408.290253 529.412827 403.353699 522.622559 397.7258 Z M 522.622559 397.7258 "/>
    <path style="fill: none; stroke-width: 0.1; stroke-linecap: butt; stroke-linejoin: miter; stroke: rgb(0%,0%,0%); opacity: 1;stroke-miterlimit: 10;" d="M 477.312546 399.386688 C 480.492569 395.918564 485.372833 394.521729 489.96051 394.47049 C 500.405182 394.0121 510.465378 398.844315 518.066376 405.756012 C 522.09581 409.582169 526.314209 413.226868 530.901794 416.38002 C 528.887802 417.631058 526.868271 418.868973 524.852127 420.110504 C 519.384171 415.238083 514.107651 410.157883 508.657288 405.270813 C 503.111496 400.318146 495.116867 398.870789 487.942352 400.118683 C 485.346588 400.533768 482.855087 401.71962 481.281097 403.886536 C 486.631378 410.90506 496.771057 408.007874 503.381531 404.505371 C 505.210327 406.369568 507.064926 408.211151 509.012573 409.964035 C 503.801956 413.645142 497.119736 413.833267 490.983795 413.760391 C 486.210831 413.588486 481.070374 412.880417 477.23674 409.793732 C 474.184906 407.13591 474.830475 402.194702 477.312546 399.386688 Z M 477.312546 399.386688 " transform="matrix(1,0,0,1,0,0)"/>
    <path style="stroke: none; fill-rule: nonzero; fill: rgb(1%,0%,0%); opacity: 1;" d="M 477.312546 399.386688 C 480.492569 395.918564 485.372833 394.521729 489.96051 394.47049 C 500.405182 394.0121 510.465378 398.844315 518.066376 405.756012 C 522.09581 409.582169 526.314209 413.226868 530.901794 416.38002 C 528.887802 417.631058 526.868271 418.868973 524.852127 420.110504 C 519.384171 415.238083 514.107651 410.157883 508.657288 405.270813 C 503.111496 400.318146 495.116867 398.870789 487.942352 400.118683 C 485.346588 400.533768 482.855087 401.71962 481.281097 403.886536 C 486.631378 410.90506 496.771057 408.007874 503.381531 404.505371 C 505.210327 406.369568 507.064926 408.211151 509.012573 409.964035 C 503.801956 413.645142 497.119736 413.833267 490.983795 413.760391 C 486.210831 413.588486 481.070374 412.880417 477.23674 409.793732 C 474.184906 407.13591 474.830475 402.194702 477.312546 399.386688 Z M 477.312546 399.386688 "/>
    <path style="fill: none; stroke-width: 0.1; stroke-linecap: butt; stroke-linejoin: miter; stroke: rgb(0%,0%,0%); opacity: 1;stroke-miterlimit: 10;" d="M 517.844849 401.214523 C 518.882385 400.378571 519.928116 399.550232 520.981262 398.728088 C 521.870377 399.461685 522.767227 400.199585 523.671829 400.941818 C 522.573425 401.88913 521.470016 402.829025 520.375183 403.77655 C 519.525162 402.919144 518.680222 402.064499 517.844849 401.214523 Z M 517.844849 401.214523 " transform="matrix(1,0,0,1,0,0)"/>
    <path style="stroke: none; fill-rule: nonzero; fill: rgb(1%,0%,0%); opacity: 1;" d="M 517.844849 401.214523 C 518.882385 400.378571 519.928116 399.550232 520.981262 398.728088 C 521.870377 399.461685 522.767227 400.199585 523.671829 400.941818 C 522.573425 401.88913 521.470016 402.829025 520.375183 403.77655 C 519.525162 402.919144 518.680222 402.064499 517.844849 401.214523 Z M 517.844849 401.214523 "/>
</g>
</svg>
